# xmcd
#
# Track frame offsets: 
#        150
#        20670
#        45220
#        66685
#        82982
#        94488
#        107100
#        128516
#        142442
#        159420
#        180890
#        199390
#        216940
#        230935
#        249892
#        260001
#        280361
#        300969
#        322949
#        335229
#        351234
#
# Disc length: 4958 seconds
#
# Revision: 1
# Processed by: cddbd v1.5.2PL0 Copyright (c) Steve Scherf et al.
# Submitted via: ExactAudioCopyFreeDBPlugin 1.0
#
DISCID=41135c15
DTITLE=Various Artist - The Roots Of It All - Acoustic Blues - Vol. 4
DTITLE=Various Artist - The 1980s and 1990s
DYEAR=2014
DGENRE=Blues
TTITLE0=Archie Edwards - The Road Is Rough And Rocky
TTITLE1=Guitar Frank - Lonesome Road Blues
TTITLE2=Guitar Slim - I`m Feelin' Lonesome
TTITLE3=Sam Chatmon - Sam`s Blues
TTITLE4=Boogie Bill Webb - Big Road Blues
TTITLE5=Arzo Youngblood - Bye Bye Blues
TTITLE6=Bowling Green John Cephas - Reno Factory
TTITLE7=Eugene Powell - Worried Blues
TTITLE8=Albert Macon and Robert 'Man' Thomas - Mean Old Frisco Blues
TTITLE9=James 'Son' Thomas - Devil Blues
TTITLE10=Henry Townsend - Heartbroken Man Blues
TTITLE11=Blind Jim Brewer - Pea Vine Whistle
TTITLE12=Rory Block - Future Blues
TTITLE13=James 'Sparky' Rucker - Kind-Hearted Woman
TTITLE14=Ted Bogan - That`ll Never Happen No More
TTITLE15=Taj Mahal - Fishin' Blues
TTITLE16=Jo Ann Kelly - Try Me One More Time
TTITLE17=Etta Baker - Broken Hearted Blues
TTITLE18=Paul Rishell - Trouble Blues
TTITLE19=John Dee Holeman - Early Morning Blues
TTITLE20=Guy Davis - Take Me Back, Babe
EXTD=YEAR: 2014
EXTT0=
EXTT1=
EXTT2=
EXTT3=
EXTT4=
EXTT5=
EXTT6=
EXTT7=
EXTT8=
EXTT9=
EXTT10=
EXTT11=
EXTT12=
EXTT13=
EXTT14=
EXTT15=
EXTT16=
EXTT17=
EXTT18=
EXTT19=
EXTT20=
PLAYORDER=
